PathFileType	3	(X/Y/Z)	results
DataRate	CameraRate	NumFrames	NumMarkers	Units	OrigDataRate	OrigDataStartFrame	OrigNumFrames
30.0	30.0	4	85	mm	30.0	1	410
Frame#	Time	head			nose			neck			shoulder_r			elbow_r			wrist_r			shoulder_l			elbow_l			wrist_l			hip_r			knee_r			ankle_r			hip_l			knee_l			ankle_l			heel_r			heel_l			mtoe_r			ltoe_r			mtoe_l			ltoe_l			asis_l			asis_r			psi_r			psi_l			mhnd_r			lhnd_r			mhnd_l			lhnd_l			l_lat_knee			r_med_wrist			l_lat_ankle			r_med_ankle			r_lat_knee			xiphoid			l_med_ankle			r_med_knee			l_med_elbow			navel			r_lat_elbow			r_lat_wrist			l_med_wrist			l_lat_elbow			l_med_knee			r_med_elbow			r_lat_ankle			l_lat_wrist			chin			T10			r_eye			l_eye			l_ear			r_ear			spinal_cord_8			spinal_cord_12			spinal_cord_27			spinal_cord_33			up_arm_r_0			up_arm_r_5			up_arm_l_0			up_arm_l_5			front_torso_11			front_torso_7			front_torso_4			front_torso_1			front_torso_10			thigh_r_2			thigh_r_3			thigh_l_1			thigh_l_5			shank_l_0			shank_l_4			shank_r_1			shank_r_2			foot_r_1			foot_r_3			foot_r_5			foot_r_6			foot_r_7			foot_l_1			foot_l_7			foot_l_0			foot_l_4			foot_l_5			foot_l_6			
		X1	Y1	Z1	X2	Y2	Z2	X3	Y3	Z3	X4	Y4	Z4	X5	Y5	Z5	X6	Y6	Z6	X7	Y7	Z7	X8	Y8	Z8	X9	Y9	Z9	X10	Y10	Z10	X11	Y11	Z11	X12	Y12	Z12	X13	Y13	Z13	X14	Y14	Z14	X15	Y15	Z15	X16	Y16	Z16	X17	Y17	Z17	X18	Y18	Z18	X19	Y19	Z19	X20	Y20	Z20	X21	Y21	Z21	X22	Y22	Z22	X23	Y23	Z23	X24	Y24	Z24	X25	Y25	Z25	X26	Y26	Z26	X27	Y27	Z27	X28	Y28	Z28	X29	Y29	Z29	X30	Y30	Z30	X31	Y31	Z31	X32	Y32	Z32	X33	Y33	Z33	X34	Y34	Z34	X35	Y35	Z35	X36	Y36	Z36	X37	Y37	Z37	X38	Y38	Z38	X39	Y39	Z39	X40	Y40	Z40	X41	Y41	Z41	X42	Y42	Z42	X43	Y43	Z43	X44	Y44	Z44	X45	Y45	Z45	X46	Y46	Z46	X47	Y47	Z47	X48	Y48	Z48	X49	Y49	Z49	X50	Y50	Z50	X51	Y51	Z51	X52	Y52	Z52	X53	Y53	Z53	X54	Y54	Z54	X55	Y55	Z55	X56	Y56	Z56	X57	Y57	Z57	X58	Y58	Z58	X59	Y59	Z59	X60	Y60	Z60	X61	Y61	Z61	X62	Y62	Z62	X63	Y63	Z63	X64	Y64	Z64	X65	Y65	Z65	X66	Y66	Z66	X67	Y67	Z67	X68	Y68	Z68	X69	Y69	Z69	X70	Y70	Z70	X71	Y71	Z71	X72	Y72	Z72	X73	Y73	Z73	X74	Y74	Z74	X75	Y75	Z75	X76	Y76	Z76	X77	Y77	Z77	X78	Y78	Z78	X79	Y79	Z79	X80	Y80	Z80	X81	Y81	Z81	X82	Y82	Z82	X83	Y83	Z83	X84	Y84	Z84	X85	Y85	Z85	
1	0.03333333333333333	788.0732287397152	1697.813352597365	-1295.8748713843167	701.5558595548923	1517.7024501612543	-1405.67825695259	739.4364585429663	1346.3575750159016	-1228.4319753551176	934.6786741252072	1299.927148832752	-1256.413756789761	954.6902880589847	1039.1910180672874	-1305.0616814165267	793.3889475014747	930.0716819475385	-1425.153251652433	592.6464142604945	1326.44218442728	-1250.2339659948686	461.0809429625938	1102.1944043312988	-1174.509842070478	509.7248125222271	942.6277160070706	-1332.5487963577727	816.2299541134753	860.3354210151343	-1274.7127552726295	866.483318512486	477.9325652581314	-1207.3959817226041	937.4069866010803	92.71379035913907	-1198.321863863339	618.1277044841389	859.1946731492559	-1266.7151733840233	607.2098738540911	469.26098245065634	-1204.311092355068	551.9712823419005	84.12691756036078	-1180.418483833517	940.95943819632	36.434847507510845	-1183.5100879522333	542.8386042439481	22.846770699947925	-1154.3538217038488	943.8827796339828	24.95580065480851	-1408.3801377516056	1008.2475729558848	20.830244065515846	-1346.7530117816677	508.8756659583712	17.628719133750145	-1378.334577774227	440.44633675941293	20.34806605893257	-1308.2134252853245	572.3682406376249	930.6774098495971	-1297.9374188584002	862.5731731197724	928.6393574913558	-1306.670256143356	771.0600653402332	918.5159472096726	-1154.5715372382854	671.9908546327681	918.8302855526058	-1156.8093367354975	760.5179236896498	871.5240917158987	-1454.7059714273244	727.123106541294	907.2558018417554	-1476.5479798939477	509.0378244039333	873.605516087949	-1364.9537460784607	538.6240813999634	897.3107654244473	-1402.6162191062208	555.853020680414	463.8955125273997	-1205.230348392538	815.6446647495081	912.1126221895279	-1421.874041565014	498.41847608494436	77.28084692706844	-1168.679676279677	905.8493585442723	76.82680623528066	-1214.006131690518	910.2590892117564	472.11911217721985	-1213.1475960499654	708.1326294750146	1185.9421154920371	-1322.0466777677611	578.2078540513986	67.69248680373957	-1197.2393250004363	825.2936493804468	465.7343502993962	-1209.9568734127602	486.0711962613605	1107.5347692397197	-1147.4263553992312	688.8924649721348	974.7678105914111	-1340.493690728895	967.0851117522398	1053.6187340857884	-1341.0076898018588	778.4817790400627	956.2048989055671	-1415.030524121849	482.9240655120907	933.7240520469236	-1317.5653047332846	436.591191546187	1121.0000067824953	-1201.8040858893094	650.3469958986732	462.2223458793736	-1230.1785553690252	943.1095758080108	1037.9055373281033	-1269.4298797129584	987.6070654323945	83.26254004881977	-1197.826782925603	524.1967170940532	967.7983629098829	-1342.7424493503397	709.3491906660261	1435.684769755099	-1390.3322567621058	755.7493775842244	1189.4195579109517	-1138.2688798733159	732.680061351563	1550.226892048915	-1424.8046556008385	671.953897881021	1552.370799490542	-1382.5453038879366	687.7796139209191	1543.5892211104685	-1260.963405545296	839.7909928683101	1534.8121195053811	-1363.58300008493	754.523030487041	1401.775601828182	-1181.1090845589497	759.2045839786219	1286.4189820169422	-1135.2881564724958	755.2178930979736	1042.663727355549	-1159.9871913363534	751.9427341114915	1180.5984244236943	-1150.6877269353183	907.0967069049881	1173.5472275361672	-1308.7232704324103	986.5785282986791	1145.8124183817488	-1277.3206436960083	542.2253645715258	1289.6986367694908	-1251.34236381221	513.0913964807401	1169.187512701015	-1155.618770924006	749.1616834087753	997.4033096647072	-1315.4356996902895	696.7496847028815	1102.9168957437175	-1353.1439059596314	643.6192446645208	1233.6880904014977	-1309.42426380588	630.335830921216	1036.8916040616655	-1287.7024443719183	791.2297484029258	1265.4962286598836	-1353.82239331235	825.6625870064049	649.520048059753	-1239.791555300179	926.1054718353158	625.7385632753355	-1239.4116950933817	657.5549669223108	578.0096955648115	-1227.686120575148	512.1907921543432	753.3806113045223	-1262.7592985746228	497.5895414306291	186.91031941352753	-1186.840203638889	632.815240785391	313.0075091281452	-1206.195816270453	954.6305322484942	323.56520327333584	-1197.6766010977497	864.194053493287	269.45804416167607	-1210.7666118406796	966.584316279112	17.77751418398508	-1389.608344950339	990.3169386228616	19.604951607137806	-1372.296485326309	929.6811721442211	37.14561953267083	-1326.3756119457241	966.270578963964	43.70545932883417	-1312.1942103349063	996.8532300374467	30.1366977642855	-1299.1601082889354	463.97171649809206	14.96726140064235	-1343.2694520247398	472.1392659196393	49.22270023746605	-1238.014407890043	451.1223069972476	17.870723416213437	-1332.7745560221724	479.874548950309	11.376848561918063	-1355.5263388960639	487.3352276996524	28.784254636192486	-1297.6008015906455	524.7277006588591	35.03699914583627	-1274.613703021111	
2	0.06666666666666667	780.5040884413262	1698.0268964442287	-1292.4085785136938	707.546001639488	1514.0556423276537	-1405.6060654922398	744.7295962616254	1350.7740118007569	-1230.2103353059508	923.8521606404743	1313.208355245382	-1252.5496286787272	965.5185104005035	1054.4087576868917	-1297.6838590422747	799.023340145177	971.1762517063748	-1430.7208668725896	585.9228411400661	1320.477280647238	-1234.7884132337595	462.99254646405825	1080.5894775675163	-1208.8525761663857	545.6607961268477	951.8025003290367	-1380.2700202384046	826.0325995664949	864.2727219554693	-1274.4577040515114	869.7190916999181	480.51242501733844	-1209.7808037778366	945.4725885546598	96.323482890256	-1196.8860255208306	627.9840610789283	863.3686375024357	-1265.1990343736857	614.0236452776069	472.92621674431217	-1206.5866616426217	552.3639829996223	88.69284992144966	-1183.9324668683726	950.3281764586638	39.67727155437058	-1181.6590254211496	540.5009205557845	25.83552455611016	-1159.5199001652975	948.8209452820236	32.26695681548671	-1406.7138392515378	1014.6936974739344	30.814916628080994	-1346.5771483730528	536.550836897431	31.275554336762905	-1386.0213157107048	459.729319289638	22.798950309999842	-1325.742417368915	582.0989886976234	934.7690843404093	-1296.4252271299777	872.2404561932169	932.3966669781438	-1306.9902362066896	781.684527576668	922.9943750854993	-1154.273592309161	682.6034730914868	923.4013492316843	-1155.884206953504	761.4086447363815	918.496562613689	-1465.2414813060595	733.0917622250047	958.9439940210516	-1486.0068782955227	555.314552050576	888.9112122510742	-1422.2951041908489	587.2902598504529	920.2490276367904	-1451.4711690601061	562.6640389099717	468.604316606832	-1203.4384321493603	819.0396718303759	950.7039817025949	-1427.749230425432	498.4865332543566	82.67620731621633	-1173.2745231359052	913.3082537226328	79.7898013596991	-1210.5377415396183	913.7720807850686	474.68854361877305	-1212.251587387676	725.4439902031995	1188.9119034729292	-1324.5792134544467	578.6759546256058	71.8545394199942	-1200.2278759008136	828.7881150161979	468.6515466460529	-1215.6208737600064	483.92762699893456	1083.326166307415	-1178.1804317140918	711.9947378244141	977.2377162187619	-1342.4179165543947	980.3769277233256	1069.6636289713779	-1332.3309729118364	786.5766304629052	998.1425318254181	-1419.516516494398	518.0487012417962	938.8318099581562	-1370.7100149643834	440.77962252818696	1101.7625117793539	-1236.360083979985	654.8107130225382	465.3971828191177	-1235.8888345102384	950.6389845121366	1052.3215975573166	-1263.338056947346	995.7333523504899	87.41080698642295	-1198.8957476723697	559.0296060004746	979.1971824987376	-1384.4788633287155	715.6434220377993	1432.527067938027	-1387.9805450247916	755.362489267386	1195.0306601107839	-1137.1727820382403	739.5468123199993	1546.8994235358498	-1422.6239541560446	675.3452117983011	1548.4844120109753	-1385.8304985130908	680.7150256258585	1542.3006865864347	-1263.1820005567265	841.2204272386887	1534.9825512925481	-1352.0624763344624	754.224943332524	1406.9148863046169	-1182.2910392338938	756.7032464416461	1292.1027828501947	-1134.9553968262553	759.6384205456143	1048.0976682236287	-1157.214080333603	752.9153036725988	1186.0214781669242	-1149.797227223872	909.8150719214743	1185.35566373741	-1306.6382971284208	987.5129621949885	1162.8587627046702	-1267.5277892334257	538.9167117157064	1281.5198206815792	-1247.6856688140597	507.09068469489813	1146.9303736807083	-1174.1498944150665	769.1845928826475	1001.2868225876792	-1312.026990516739	718.614617213296	1105.393795615011	-1355.6900069441244	659.1424640156347	1235.4935637857193	-1318.6431523285596	647.5474725537831	1038.683661938396	-1296.091827228964	809.6737557366168	1269.788380265707	-1349.2374026455734	832.057097398126	652.8856837570098	-1242.3514468313842	932.0982680652613	628.6312331642335	-1234.7381543062222	664.5845023586764	580.9780288558015	-1232.6610649840286	520.5380093593069	759.6169217378149	-1253.982017420799	499.71902950792713	192.3055505103947	-1191.412913033663	637.2411859405904	316.2952335159434	-1208.0064587230434	960.03735008586	327.30773481004906	-1201.7424459905799	869.6622320724916	272.00000227611827	-1208.8896485237694	972.3166055727261	26.093211378827554	-1388.5725443013894	996.2901939659259	28.993636541376855	-1371.7460185780385	935.7996695782638	42.19738906225758	-1324.2101878980689	972.2623621799939	50.62039171708084	-1310.7026560832683	1003.8619964135	38.623395155654435	-1298.5851958280618	488.0307503646813	21.98204554127417	-1357.5179303793725	478.81054920417256	50.235374400079735	-1250.5810070637576	473.69579652603903	22.933611204901624	-1348.7268053357413	505.677134109772	20.76160738238785	-1367.6736229482487	503.68089134734583	35.17035645393369	-1308.4921194967164	536.9027636851423	43.65710729272326	-1280.3854867007938	
3	0.1	773.3184407850136	1697.955240668259	-1289.1832612773096	712.1912066297684	1511.2742495031807	-1404.9228163629496	748.3481518215917	1353.99693887345	-1230.7242252461247	918.2584879141584	1320.2348357417043	-1250.557814284886	974.6802882509189	1063.6977929226127	-1292.459380576206	804.2829168996137	999.5978463538122	-1431.0345223189895	582.0781260024606	1312.6236538789774	-1224.1292411579514	467.35199290602	1067.4564315302218	-1231.9797526358366	570.7099609455081	959.3524281382548	-1406.43524849107	834.2836140062104	867.1219737584723	-1275.295967689365	872.9322486029607	482.7628439795551	-1210.71166019731	949.7569321219222	98.84588893075436	-1196.1600117335108	636.4061755869095	866.9048991314497	-1262.8767820000965	618.8033188899553	475.85587809603464	-1209.3122737781982	553.3170780837291	92.2462627067665	-1186.8262354631945	955.1918034658235	42.34027026740013	-1180.3262147612863	540.6529824007029	28.89709753212651	-1162.9020853311283	952.9575200704581	33.784893836685654	-1405.3343640590792	1019.1048510111729	37.13136760932582	-1345.575839859047	549.2687193084445	38.033437190941946	-1389.155007310428	470.0407128365554	22.45180650022015	-1333.5935121523682	590.2809129341147	938.4980219418072	-1293.297559465913	880.2065388951034	935.1161045774214	-1308.4966708707811	792.0676530168564	925.8767868590645	-1154.362559046029	692.9755685693459	926.6338146055436	-1154.3903838943615	763.3850299757778	951.5961328803425	-1468.5163328841004	738.3431350945573	994.990533558468	-1487.4602433909263	586.8931411052632	901.3255704789768	-1453.1857059311528	619.913170005948	936.5293202380171	-1476.1230339797344	567.563348107887	472.27837283973776	-1204.1356874660157	822.7216798392848	977.5943374117104	-1428.9236902785126	499.7121743376314	86.79781108554619	-1174.6033056507472	916.8571978904309	82.088191495237	-1207.6083074387736	917.0384759460611	476.98014902344676	-1209.8388142000883	738.0681851854316	1191.3308260410568	-1325.121364494803	578.9339370609943	75.19340374423217	-1203.9833169244266	832.5610804352657	471.0202928815631	-1219.7444501409395	485.37336867811024	1067.9101619355595	-1199.3979839367064	729.9610741582102	979.3448990260839	-1342.4794970540277	990.5882754198619	1079.6102507316386	-1326.3361542337504	793.6848771237624	1026.8096180693833	-1418.5910764224595	542.962777403162	944.5151562423923	-1400.7775580052562	446.7928289700842	1090.4416950753503	-1259.3178723891767	658.2762235099785	468.1912053837347	-1240.3129340305886	958.1317996147592	1060.9362179845411	-1258.9345856128753	999.8196389660603	89.91119857101305	-1201.009325483602	583.1601442720245	987.4914808050169	-1406.7429804008464	719.9281831422543	1430.1439184430574	-1385.3999014325318	756.4228906721709	1198.9446144534581	-1136.285824095993	745.0191235772157	1544.3246855296452	-1419.8349231955708	678.0434868469064	1545.5198714038493	-1388.3555380132054	673.5848641052247	1541.241353801847	-1265.5893277515956	840.8198422473114	1534.9446617962467	-1341.141242228693	753.7919127712069	1410.545699029822	-1182.6532201224848	755.6857803530356	1296.0333638236139	-1134.5703491674665	764.8442785287091	1052.0354404672046	-1155.1542144835455	754.9274257666715	1189.8278208628244	-1148.9814277531698	913.2724698987773	1191.7851097882299	-1304.8232928787984	989.7990707882822	1173.1225747167907	-1261.6018435990468	538.0394615612142	1273.5711696868775	-1244.8439365357801	505.4452446799074	1131.5547093447217	-1187.3663985390267	784.7077035761388	1004.6946872081357	-1308.8217753448475	734.8115179242274	1107.5446453816116	-1356.0901584011224	670.6106531876377	1236.5835690860702	-1323.4932067458838	661.6041835581926	1039.6878666981522	-1300.5125748598043	822.0062938436109	1273.783929286505	-1345.110458383613	837.8509811648272	655.4699824593602	-1244.5991483785408	937.0192243914436	631.0952778891167	-1229.565528137825	669.9436181651953	583.5548801657795	-1235.8439445028318	527.9164779072522	764.5961011538337	-1248.8130208633484	501.6986122364423	196.50398355599935	-1192.2022519442746	640.1204062026361	318.9757059974439	-1212.2326018578	963.7435176306209	329.72440327198706	-1205.5902171702571	873.1666504325914	274.2919300937486	-1206.4630195304223	976.9204600420026	29.32046838245054	-1387.3034411496778	1000.7311851047195	33.93534875787006	-1370.6292207601973	939.7405805873198	43.18832127554058	-1322.8000823616107	975.6141866503431	54.15258095016157	-1309.5412083882381	1008.027802693477	44.40538321485891	-1297.5559138762142	500.0914700808485	24.435404627407046	-1363.6657400194338	482.5326672776405	49.96799388547506	-1257.089271701373	485.2461125969373	24.096537181950556	-1355.7171056505467	518.3318965311304	24.791814110474775	-1372.7861695775428	511.8037812325573	37.943966333054604	-1313.6384562800736	542.5768808798399	48.524638569019984	-1283.5258964140164	
4	0.13333333333333333	768.592626267873	1697.6073426238484	-1286.3794126180749	713.7911396179753	1509.7561487729977	-1403.3866852939186	749.6394326735322	1355.6530821883161	-1230.251425247916	918.5358398408458	1322.406625798715	-1247.4423438123986	982.6132449852872	1067.7479942643738	-1289.791873730489	808.1835379476232	1011.4362668425752	-1426.7239878605128	583.2785667502495	1304.9673989819676	-1218.8279992674368	468.10912253932304	1060.6348792960755	-1238.019195270299	587.2635260191431	968.7516902346891	-1411.6964040226146	840.7842566438134	868.9326265547728	-1274.9839830420635	875.7048445236012	484.34272003410024	-1209.7648172222196	950.0896626932073	99.92381937838235	-1195.7999151720906	642.9978990219565	868.306923402965	-1261.2025040137735	621.4374359356303	477.0055304840509	-1210.7341203882138	553.446640907938	93.92171577691005	-1186.7664468660616	955.0499857729524	43.55817394952291	-1179.915718573266	540.5642314835981	31.094821750280552	-1162.2685885674505	954.8291682175967	33.26526136725537	-1404.8620697967542	1020.4410421770793	36.95098874761719	-1344.535898850308	549.3740255731767	36.24357339137948	-1388.6398902238955	470.1930246224293	21.105953085713434	-1332.8889663875138	596.5174669074712	939.811178133694	-1291.289873058054	886.3378739851447	937.0273941021754	-1308.4858356430848	799.2816871778023	927.5769321723709	-1153.7503783889604	700.1904164863743	928.1305526050288	-1153.0956703942238	765.4475952379703	965.437137585687	-1464.6635066079639	741.1224216945649	1009.9045285185613	-1481.9834179949357	609.0944715371464	914.6624180703064	-1460.8123612592144	641.7860103854596	952.6882979768187	-1479.279712687402	570.2272989065127	474.00349026542597	-1205.084871221397	826.1180618559738	988.9517361586663	-1425.5421551655809	499.89487282888496	88.87915136127094	-1174.1429757262115	917.1391961251961	83.39760407469937	-1207.4372418017315	919.7561386427664	478.1628433627063	-1208.6057643046888	744.5503883352106	1192.6928844548195	-1324.563871185651	578.8194651169009	76.64620880480322	-1204.0628498864094	835.2971938485687	472.91790955829094	-1219.0579972981675	484.84484661534646	1060.097980422045	-1204.7599892242506	740.3575121088768	980.5760033244544	-1341.707727112072	998.0704000846667	1084.19449410113	-1323.6222618761942	798.4808965750572	1038.5513719912676	-1413.372278758624	559.9504279172094	952.3881078087248	-1408.8174917730882	448.7127943059716	1084.466545388512	-1265.4820519307846	660.5566514421731	469.198281174864	-1242.1232554546089	966.1243757968999	1064.4281306878556	-1256.2883463291148	1000.1176582902085	90.69115698475933	-1200.4449936326967	598.3590991399523	997.3634849215185	-1409.4245081855508	721.076339400824	1428.8130977588078	-1382.9346930315846	757.6825277251625	1200.901526241329	-1135.3182862430479	747.0810372835601	1542.8882031400742	-1417.040405287656	678.7417456502588	1543.9215128034334	-1388.6363639138974	668.7459150195643	1540.493025445044	-1266.169812333244	839.2656036577409	1534.6224269667107	-1334.0214879632365	752.8665285257273	1412.3585222570616	-1182.1650731189898	755.322959702218	1297.9679700037004	-1133.81849486241	768.9939177767035	1054.1195085096065	-1153.657671627429	756.6780422788704	1191.7416336957435	-1148.031195839967	917.4275960630005	1193.9732846063712	-1301.9637460880056	994.4375271919861	1177.5131862866087	-1258.705912027005	539.9498025475616	1266.707240958645	-1242.3307138476166	504.64871857801717	1123.2908089293944	-1190.1743542069771	793.7581808144203	1006.8669732521603	-1306.6392098036263	743.4906303726502	1108.8161833797847	-1355.4405950563842	676.3475371476237	1236.8434578849976	-1324.843566836519	669.923419955116	1039.8635636238766	-1301.7179202277052	827.6467894685795	1276.4706059969005	-1342.4514558832107	842.3332115266426	657.289639001433	-1244.0577352354983	941.1881349966169	632.0803748331215	-1228.3518913893422	673.5692083344533	584.3822067980346	-1236.8115640273636	533.4888798899336	767.1108200135498	-1246.989221103037	502.5176762165695	198.5229666640278	-1192.0445899698932	641.6402513786173	319.9733655090078	-1213.3950105963713	965.5448345898792	330.7333465324568	-1204.6056842891617	874.6321283188671	275.86474095328583	-1206.021911073105	978.6197899675541	28.89590945181693	-1386.5814010926133	1002.287997984367	33.595355851211885	-1369.7288491404377	940.8863894850626	43.33198841033686	-1322.525689501823	976.6600534076601	54.331690056599555	-1309.0282869937282	1008.9453177743737	44.617179567651625	-1296.675649868228	500.26350823033647	22.760955620748625	-1362.9613547790257	482.40616227419747	50.07226688999259	-1256.8765974318412	485.41181864666663	22.460778683034594	-1355.0230005026447	518.5113957043358	23.081389833917935	-1372.0681843471843	511.82459335639874	37.243312235423915	-1313.171885532994	542.4890445586991	48.57509978613247	-1283.2222182239784	
